<svg width="15" height="9" viewBox="0 0 15 9" fill="none" xmlns="http://www.w3.org/2000/svg">
<path d="M13.5498 4.60019C13.8536 4.60019 14.0998 4.35394 14.0998 4.05019C14.0998 3.74643 13.8536 3.50019 13.5498 3.50019L13.5498 4.05019L13.5498 4.60019ZM0.160897 3.66128C-0.0538912 3.87606 -0.0538912 4.22431 0.160897 4.43909L3.66108 7.93927C3.87586 8.15406 4.2241 8.15406 4.43889 7.93927C4.65368 7.72448 4.65368 7.37624 4.43889 7.16146L1.32762 4.05019L4.43889 0.938915C4.65368 0.724127 4.65368 0.375886 4.43889 0.161098C4.22411 -0.0536903 3.87586 -0.0536903 3.66108 0.161098L0.160897 3.66128ZM13.5498 4.05019L13.5498 3.50019L0.549806 3.50019L0.549806 4.05019L0.549806 4.60019L13.5498 4.60019L13.5498 4.05019Z" fill="white"/>
</svg>
