<svg width="17" height="17" viewBox="0 0 17 17" fill="none" xmlns="http://www.w3.org/2000/svg">
<path d="M4.75 7.84783H3.09783C1.0987 7.84783 0 6.74913 0 4.75V3.09783C0 1.0987 1.0987 0 3.09783 0H4.75C6.74913 0 7.84783 1.0987 7.84783 3.09783V4.75C7.84783 6.74913 6.74913 7.84783 4.75 7.84783ZM3.09783 1.23913C1.79261 1.23913 1.23913 1.79261 1.23913 3.09783V4.75C1.23913 6.05522 1.79261 6.6087 3.09783 6.6087H4.75C6.05522 6.6087 6.6087 6.05522 6.6087 4.75V3.09783C6.6087 1.79261 6.05522 1.23913 4.75 1.23913H3.09783Z" fill="#164C9E"/>
<path d="M13.8359 7.84783H12.1838C10.1846 7.84783 9.08594 6.74913 9.08594 4.75V3.09783C9.08594 1.0987 10.1846 0 12.1838 0H13.8359C15.8351 0 16.9338 1.0987 16.9338 3.09783V4.75C16.9338 6.74913 15.8351 7.84783 13.8359 7.84783ZM12.1838 1.23913C10.8785 1.23913 10.3251 1.79261 10.3251 3.09783V4.75C10.3251 6.05522 10.8785 6.6087 12.1838 6.6087H13.8359C15.1412 6.6087 15.6946 6.05522 15.6946 4.75V3.09783C15.6946 1.79261 15.1412 1.23913 13.8359 1.23913H12.1838Z" fill="#164C9E"/>
<path d="M13.8359 16.9348H12.1838C10.1846 16.9348 9.08594 15.8361 9.08594 13.837V12.1848C9.08594 10.1857 10.1846 9.08696 12.1838 9.08696H13.8359C15.8351 9.08696 16.9338 10.1857 16.9338 12.1848V13.837C16.9338 15.8361 15.8351 16.9348 13.8359 16.9348ZM12.1838 10.3261C10.8785 10.3261 10.3251 10.8796 10.3251 12.1848V13.837C10.3251 15.1422 10.8785 15.6957 12.1838 15.6957H13.8359C15.1412 15.6957 15.6946 15.1422 15.6946 13.837V12.1848C15.6946 10.8796 15.1412 10.3261 13.8359 10.3261H12.1838Z" fill="#164C9E"/>
<path d="M4.75 16.9348H3.09783C1.0987 16.9348 0 15.8361 0 13.837V12.1848C0 10.1857 1.0987 9.08696 3.09783 9.08696H4.75C6.74913 9.08696 7.84783 10.1857 7.84783 12.1848V13.837C7.84783 15.8361 6.74913 16.9348 4.75 16.9348ZM3.09783 10.3261C1.79261 10.3261 1.23913 10.8796 1.23913 12.1848V13.837C1.23913 15.1422 1.79261 15.6957 3.09783 15.6957H4.75C6.05522 15.6957 6.6087 15.1422 6.6087 13.837V12.1848C6.6087 10.8796 6.05522 10.3261 4.75 10.3261H3.09783Z" fill="#164C9E"/>
</svg>
