<svg width="50" height="50" viewBox="0 0 50 50" fill="none" xmlns="http://www.w3.org/2000/svg">
<path d="M4.91992 25.449C4.91931 25.2681 4.91865 25.0869 4.91797 24.906C4.91593 24.3153 4.91504 23.7245 4.91406 23.1335C4.91367 22.9295 4.91349 22.7253 4.91309 22.5212C4.91123 21.5636 4.91 20.6058 4.90918 19.6482C4.90822 18.5435 4.9053 17.4384 4.90137 16.3337C4.89843 15.4793 4.89681 14.6248 4.89648 13.7703C4.89625 13.2598 4.89601 12.7488 4.89355 12.238C4.89129 11.7594 4.8906 11.2803 4.8916 10.8015L4.88965 10.2722V9.54956C4.88863 9.4835 4.88777 9.41458 4.88672 9.34644C4.88958 9.12511 4.92035 8.96635 4.97754 8.82495C5.03339 8.68693 5.1194 8.55142 5.25488 8.38159C5.77514 7.96357 6.30554 7.95951 7.06055 7.93628C12.9314 7.75243 18.9629 5.70317 23.749 2.28589C24.0791 2.05259 24.3374 1.90679 24.6025 1.83081C24.8557 1.75831 25.1336 1.74491 25.5107 1.80444C25.8644 1.96827 26.1671 2.1949 26.5127 2.448L26.5176 2.45093C31.2373 5.73914 37.0902 7.75235 42.8496 7.91675V7.91772C43.7309 7.9505 44.3635 7.99744 44.9209 8.5564C45.0957 8.82787 45.0907 9.09726 45.0889 9.51538V9.51831C45.0893 9.59175 45.0894 9.66531 45.0898 9.74097C45.0911 9.98671 45.091 10.2326 45.0908 10.4792V10.4802C45.0914 10.6572 45.092 10.8345 45.0928 11.0115C45.0945 11.4928 45.0956 11.9742 45.0957 12.4558C45.0958 12.7582 45.0962 13.0608 45.0967 13.363C45.0985 14.4212 45.0988 15.4796 45.0986 16.5378C45.0985 17.5177 45.1004 18.4976 45.1035 19.4773C45.1061 20.322 45.1075 21.1667 45.1074 22.0115C45.1074 22.5144 45.1082 23.018 45.1104 23.5212C45.1367 30.3202 43.7738 37.2317 39.1689 42.4119L39.168 42.4138H39.167V42.4148H39.166V42.4158H39.165V42.4167L39.1631 42.4187H39.1621V42.4197L39.1582 42.4236V42.4246H39.1572V42.4255H39.1562V42.4265H39.1553V42.4275L39.1523 42.4304V42.4314H39.1514V42.4324H39.1504V42.4333H39.1494V42.4343L39.1465 42.4373V42.4382H39.1455V42.4392H39.1445V42.4402H39.1436V42.4412L39.1406 42.4441V42.4451H39.1396V42.446H39.1387V42.447H39.1377V42.448L39.1357 42.45H39.1348V42.4509H39.1338V42.4519L39.1309 42.4548V42.4558H39.1299V42.4568H39.1289V42.4578H39.1279V42.4587L39.125 42.4617V42.4626H39.124V42.4636H39.123V42.4646H39.1221V42.4656L39.1182 42.4695V42.4705H39.1172V42.4714H39.1162V42.4724L39.1123 42.4763V42.4773H39.1113V42.4783H39.1104L39.1094 42.4792V42.4802H39.1084V42.4812H39.1074V42.4822H39.1064V42.4832L39.1035 42.4861V42.4871H39.1025V42.488H39.1016V42.489H39.1006V42.49L39.0977 42.4929V42.4939H39.0967V42.4949H39.0957V42.4958H39.0947V42.4968L39.0918 42.4998V42.5007H39.0908V42.5017H39.0898V42.5027H39.0889V42.5037L39.0859 42.5066H39.085V42.5076L39.082 42.5105V42.5115H39.0811V42.5125H39.0801V42.5134H39.0791V42.5144L39.0762 42.5173V42.5183H39.0752V42.5193H39.0742V42.5203H39.0732V42.5212L39.0703 42.5242V42.5251H39.0693V42.5261H39.0684V42.5271H39.0674V42.5281L39.0645 42.531V42.532H39.0635L39.0605 42.5349V42.5359H39.0596V42.5369H39.0586V42.5378L39.0547 42.5417V42.5427H39.0537V42.5437H39.0527V42.5447L39.0498 42.5476V42.5486H39.0488V42.5496H39.0479V42.5505H39.0469V42.5515L39.0439 42.5544V42.5554H39.043L39.04 42.5583V42.5593H39.0391V42.5603H39.0381V42.5613L39.0342 42.5652V42.5662H39.0332V42.5671H39.0322V42.5681L39.0293 42.571V42.572H39.0283V42.573H39.0273V42.574H39.0264V42.575L39.0244 42.5769H39.0234V42.5779L39.0195 42.5818V42.5828H39.0186V42.5837H39.0176V42.5847L39.0146 42.5876V42.5886H39.0137V42.5896H39.0127V42.5906H39.0117V42.5916L39.0088 42.5945V42.5955H39.0078V42.5964H39.0068L39.0059 42.5974V42.5984H39.0049V42.5994H39.0039V42.6003H39.0029V42.6013L39 42.6042V42.6052H38.999V42.6062H38.998V42.6072L38.9941 42.6111V42.6121H38.9932V42.613H38.9922V42.614L38.9912 42.615H38.9902V42.616H38.9893V42.6169L38.9854 42.6208V42.6218H38.9844V42.6228H38.9834V42.6238L38.9805 42.6267V42.6277H38.9795V42.6287H38.9785V42.6296L38.9756 42.6326H38.9746V42.6335L38.9717 42.6365V42.6375H38.9707V42.6384H38.9697V42.6394L38.9668 42.6423V42.6433H38.9658V42.6443H38.9648V42.6453H38.9639V42.6462L38.9619 42.6482H38.9609V42.6492L38.958 42.6521V42.6531H38.957V42.6541H38.9561V42.655L38.9531 42.658V42.6589H38.9521V42.6599H38.9512V42.6609H38.9502V42.6619L38.9492 42.6628H38.9482V42.6638H38.9473V42.6648L38.9443 42.6677V42.6687H38.9434V42.6697H38.9424V42.6707L38.9395 42.6736V42.6746H38.9385V42.6755H38.9375L38.9365 42.6765V42.6775H38.9355V42.6785H38.9346V42.6794H38.9336V42.6804L38.9307 42.6833V42.6843H38.9297V42.6853H38.9287V42.6863L38.9229 42.6921V42.6931H38.9219V42.6941H38.9209V42.6951L38.918 42.698V42.699H38.917V42.7H38.916V42.7009L38.915 42.7019H38.9141V42.7029H38.9131V42.7039L38.9102 42.7068C38.5018 43.1657 38.0958 43.5916 37.6406 43.9773L37.4424 44.1404C37.3901 44.1821 37.3371 44.2234 37.2832 44.2664C35.7795 45.4544 34.22 46.3497 32.4307 47.032H32.4297V47.033H32.4277L32.4268 47.0339H32.4248L32.4238 47.0349H32.4219V47.0359H32.4199L32.4189 47.0369H32.417V47.0378H32.415L32.4141 47.0388H32.4121L32.4111 47.0398H32.4102L32.4092 47.0408H32.4072L32.4062 47.0417H32.4043V47.0427H32.4023L32.4014 47.0437H32.3994L32.3984 47.0447H32.3975L32.3965 47.0457H32.3945L32.3936 47.0466H32.3916L32.3906 47.0476H32.3896L32.3887 47.0486H32.3867L32.3857 47.0496H32.3848L32.3838 47.0505H32.3818L32.3809 47.0515H32.3789L32.3779 47.0525H32.377L32.376 47.0535H32.374L32.373 47.0544H32.3721L32.3711 47.0554H32.3691L32.3682 47.0564H32.3662L32.3652 47.0574H32.3643L32.3633 47.0583H32.3613L32.3604 47.0593H32.3584L32.3574 47.0603H32.3564L32.3555 47.0613H32.3535L32.3525 47.0623H32.3516L32.3506 47.0632H32.3486L32.3477 47.0642H32.3457L32.3447 47.0652H32.3438L32.3428 47.0662H32.3408L32.3398 47.0671H32.3389L32.3379 47.0681H32.3359L32.335 47.0691H32.333L32.332 47.0701H32.3311L32.3301 47.071H32.3281L32.3271 47.072H32.3262L32.3252 47.073H32.3232L32.3223 47.074H32.3203L32.3193 47.075H32.3184L32.3174 47.0759H32.3154L32.3145 47.0769H32.3125L32.3115 47.0779H32.3105L32.3096 47.0789H32.3076L32.3066 47.0798H32.3057L32.3047 47.0808H32.3027L32.3018 47.0818H32.2998L32.2988 47.0828H32.2979L32.2969 47.0837H32.2949L32.2939 47.0847H32.293L32.292 47.0857H32.29L32.2891 47.0867H32.2871L32.2861 47.0876H32.2852L32.2842 47.0886H32.2822L32.2812 47.0896H32.2803L32.2793 47.0906H32.2773L32.2764 47.0916H32.2744L32.2734 47.0925H32.2725L32.2715 47.0935H32.2695L32.2686 47.0945H32.2676L32.2666 47.0955H32.2646L32.2637 47.0964H32.2617L32.2607 47.0974H32.2598L32.2588 47.0984H32.2568L32.2559 47.0994H32.2549L32.2539 47.1003H32.252L32.251 47.1013H32.249V47.1023H32.2471L32.2461 47.1033H32.2441L32.2432 47.1042H32.2412V47.1052H32.2393L32.2383 47.1062H32.2363V47.1072H32.2334V47.1082H32.2314L32.2305 47.1091H32.2285V47.1101H32.2256V47.1111H32.2236V47.1121H32.2207V47.113H32.2178V47.114H32.2158V47.115H32.2129V47.116H32.2109L32.21 47.1169H32.208V47.1179H32.2061L32.2051 47.1189H32.2031L32.2021 47.1199H32.2002V47.1208H32.1982L32.1973 47.1218H32.1953L32.1943 47.1228H32.1934L32.1924 47.1238H32.1904L32.1895 47.1248H32.1885L32.1875 47.1257H32.1855L32.1846 47.1267H32.1826L32.1816 47.1277H32.1807L32.1797 47.1287H32.1777L32.1768 47.1296H32.1758L32.1748 47.1306H32.1729L32.1719 47.1316H32.1709L32.1699 47.1326H32.168L32.167 47.1335H32.165V47.1345H32.1631L32.1621 47.1355H32.1602L32.1592 47.1365H32.1572V47.1375H32.1543V47.1384H32.1523V47.1394H32.1494V47.1404H32.1475L32.1465 47.1414H32.1445L32.1436 47.1423H32.1426L32.1416 47.1433H32.1396L32.1387 47.1443H32.1367L32.1357 47.1453H32.1348L32.1338 47.1462H32.1318L32.1309 47.1472H32.1299L32.1289 47.1482H32.127L32.126 47.1492H32.125L32.124 47.1501H32.1221L32.1211 47.1511H32.1191V47.1521H32.1172L32.1162 47.1531H32.1143V47.1541H32.1113V47.155H32.1084V47.156H32.1064L32.1055 47.157H32.1035V47.158H32.1016L32.1006 47.1589H32.0986L32.0977 47.1599H32.0967L32.0957 47.1609H32.0938L32.0928 47.1619H32.0918L32.0908 47.1628H32.0889L32.0879 47.1638H32.0869L32.0859 47.1648H32.084L32.083 47.1658H32.0811V47.1667H32.0781V47.1677H32.0762L32.0752 47.1687H32.0732L32.0723 47.1697H32.0713C31.3584 47.4242 30.6338 47.6054 29.8838 47.7722H29.8828C29.7515 47.8016 29.7506 47.8021 29.6182 47.8318C28.3694 48.0971 27.1453 48.197 25.875 48.2156L25.3271 48.2185C25.0382 48.2182 24.7495 48.219 24.4619 48.2214C22.7749 48.2271 21.1115 48.065 19.4844 47.6404H19.4834C19.3873 47.6157 19.2914 47.5906 19.1924 47.5652H19.1934C17.2483 47.0452 15.3472 46.1904 13.7207 45.0125V45.0115H13.7188V45.0105H13.7178V45.0095L13.7158 45.0085H13.7148L13.7119 45.0056H13.7109V45.0046H13.71L13.709 45.0037H13.708V45.0027H13.707V45.0017L13.7051 45.0007H13.7041V44.9998H13.7031L13.7012 44.9978H13.7002L13.6973 44.9949H13.6963V44.9939H13.6943V44.9929H13.6934V44.9919H13.6924L13.6914 44.991H13.6904V44.99H13.6895L13.6865 44.9871H13.6855L13.6836 44.9851H13.6826V44.9841H13.6816V44.9832H13.6797V44.9822H13.6787L13.6768 44.9802H13.6758L13.6729 44.9773H13.6719L13.6709 44.9763L13.6699 44.9753H13.6689V44.9744H13.668V44.9734H13.666V44.9724H13.665V44.9714H13.6641L13.6621 44.9695H13.6611L13.6592 44.9675H13.6582V44.9666H13.6572V44.9656H13.6553V44.9646H13.6543V44.9636L13.6523 44.9626H13.6514V44.9617H13.6504L13.6475 44.9587H13.6465L13.6455 44.9578H13.6445V44.9568H13.6436V44.9558H13.6426L13.6416 44.9548H13.6406V44.9539H13.6396L13.6377 44.9519H13.6367L13.6338 44.949H13.6328V44.948H13.6309V44.947H13.6299V44.946H13.6289L13.627 44.9441H13.626L13.623 44.9412H13.6221L13.6201 44.9392H13.6191V44.9382H13.6182V44.9373H13.6162V44.9363H13.6152L13.6123 44.9333H13.6113L13.6094 44.9314H13.6084V44.9304H13.6074L13.6064 44.9294H13.6055V44.9285H13.6045V44.9275L13.6025 44.9265H13.6016L13.5986 44.9236H13.5977L13.5967 44.9226L13.5957 44.9216H13.5947V44.9207H13.5938V44.9197L13.5918 44.9187H13.5908L13.5879 44.9158H13.5869L13.585 44.9138H13.584V44.9128H13.583V44.9119H13.5811V44.9109H13.5801L13.5771 44.908H13.5762L13.5742 44.906H13.5732V44.905H13.5723V44.9041H13.5703V44.9031H13.5693V44.9021H13.5684L13.5664 44.9001H13.5654L13.5635 44.8982H13.5625V44.8972H13.5615L13.5605 44.8962H13.5596V44.8953H13.5586L13.5566 44.8933H13.5557L13.5527 44.8904H13.5518V44.8894H13.5508L13.5498 44.8884H13.5488V44.8875H13.5479L13.5459 44.8855H13.5449L13.542 44.8826H13.541L13.54 44.8816L13.5391 44.8806H13.5381V44.8796H13.5371L13.5352 44.8777H13.5342L13.5312 44.8748H13.5303V44.8738H13.5283V44.8728H13.5273V44.8718H13.5264L13.5244 44.8699H13.5234L13.5215 44.8679H13.5205V44.8669H13.5195V44.866H13.5176V44.865H13.5166V44.864H13.5156L13.5137 44.8621H13.5127L13.5107 44.8601H13.5098V44.8591H13.5088V44.8582H13.5068V44.8572H13.5059L13.5029 44.8542H13.502L13.5 44.8523H13.499V44.8513H13.498L13.4971 44.8503H13.4961V44.8494H13.4951L13.4922 44.8464H13.4912L13.4902 44.8455H13.4893V44.8445H13.4883V44.8435H13.4873L13.4863 44.8425H13.4854V44.8416H13.4844L13.4824 44.8396H13.4814V44.8386H13.4805V44.8376H13.4785V44.8367H13.4775L13.4746 44.8337H13.4736L13.4717 44.8318H13.4707V44.8308H13.4697L13.4688 44.8298H13.4678V44.8289H13.4668L13.4639 44.8259H13.4629L13.4619 44.825H13.4609V44.824H13.46V44.823H13.459L13.457 44.821H13.4561L13.4541 44.8191H13.4531V44.8181H13.4521L13.4512 44.8171H13.4502V44.8162H13.4492L13.4463 44.8132H13.4453V44.8123H13.4434V44.8113H13.4424V44.8103H13.4414L13.4395 44.8083H13.4385L13.4365 44.8064H13.4355V44.8054H13.4346L13.4326 44.8035H13.4316L13.4297 44.8015H13.4287V44.8005H13.4277V44.7996H13.4258V44.7986H13.4248L13.4219 44.7957H13.4209V44.7947H13.4189V44.7937H13.418V44.7927H13.417L13.415 44.7908H13.4141C12.326 43.9857 11.2833 43.079 10.4492 42.032L10.4473 42.0291L10.2314 41.7644C9.52206 40.8731 8.91163 39.9213 8.32031 38.9343V38.9333L8.20801 38.7468C6.35382 35.6057 5.48179 31.8102 5.0332 28.1921V28.1892L5.00879 28.0085C4.90864 27.1669 4.92122 26.3214 4.91992 25.45V25.449ZM42.3398 10.7156L42.1191 10.6892C42.0325 10.6789 41.9457 10.6686 41.8564 10.658C41.5263 10.6183 41.1954 10.5783 40.8652 10.5378C40.7236 10.5206 40.5821 10.503 40.4404 10.4861C35.2722 9.86864 29.8686 8.10919 25.5898 5.1189L25.582 5.11304L25.5732 5.10815L25.4121 5.02417C25.2516 4.95179 25.0923 4.91508 24.9258 4.92651C24.7628 4.93777 24.6128 4.99332 24.4678 5.073L24.3262 5.15894C24.2598 5.20132 24.1934 5.24417 24.125 5.28784L24.123 5.28882C24.0521 5.33489 23.9812 5.38103 23.9082 5.42847C22.8719 6.08113 21.7921 6.64452 20.6885 7.19897H20.6875L20.4639 7.31226C16.811 9.14783 12.7454 10.171 8.68164 10.5955C8.59561 10.6045 8.50954 10.6135 8.4209 10.6228C8.20949 10.645 7.99757 10.6671 7.78613 10.6892L7.56348 10.7126L7.5625 10.9373L7.55273 16.2859C7.55174 17.114 7.55011 17.9423 7.54785 18.7703C7.54588 19.4938 7.54438 20.2176 7.54395 20.9412C7.54369 21.3225 7.54344 21.7036 7.54199 22.0847C7.53364 24.3725 7.5343 26.7136 7.89746 29.0056L7.97559 29.4636C7.99635 29.5824 8.01669 29.7016 8.03809 29.824L8.03906 29.825C8.74558 33.7002 10.1727 37.469 12.7959 40.491V40.4919L12.7979 40.4939V40.4949H12.7988L12.7998 40.4958V40.4968L12.8008 40.4978H12.8018V40.4988L12.8027 40.4998V40.5007H12.8037L12.8047 40.5017V40.5027L12.8057 40.5037H12.8066V40.5046L12.8076 40.5056L12.8086 40.5066V40.5076H12.8096V40.5085L12.8105 40.5095H12.8115V40.5105L12.8135 40.5125V40.5134H12.8145V40.5144H12.8154V40.5154L12.8164 40.5164L12.8184 40.5183V40.5193H12.8193V40.5203H12.8203V40.5212L12.8232 40.5242V40.5251H12.8242V40.5261H12.8252V40.5271L12.8281 40.53V40.531H12.8291V40.532H12.8301V40.533L12.833 40.5359V40.5369H12.834V40.5378L12.835 40.5388L12.8369 40.5408V40.5417H12.8379L12.8389 40.5427V40.5437L12.8398 40.5447H12.8408V40.5457L12.8418 40.5466V40.5476H12.8428V40.5486H12.8438V40.5496L12.8447 40.5505L12.8457 40.5515L12.8467 40.5525L12.8477 40.5535V40.5544H12.8486V40.5554L12.8496 40.5564H12.8506V40.5574L12.8516 40.5583V40.5593H12.8525V40.5603H12.8535V40.5613L12.8545 40.5623H12.8555V40.5632L12.8574 40.5652V40.5662H12.8584V40.5671H12.8594V40.5681L12.8604 40.5691L12.8623 40.571V40.572H12.8633V40.573H12.8643V40.574L12.8672 40.5769V40.5779H12.8682V40.5789H12.8691V40.5798L12.8721 40.5828V40.5837L12.873 40.5847H12.874V40.5857L12.875 40.5867L12.876 40.5876L12.877 40.5886V40.5896L12.8779 40.5906H12.8789V40.5916L12.8818 40.5945V40.5955H12.8828V40.5964H12.8838V40.5974L12.8867 40.6003V40.6013H12.8877V40.6023H12.8887V40.6033L12.8916 40.6062V40.6072H12.8926V40.6082H12.8936V40.6091L12.8965 40.6121V40.613H12.8975V40.614H12.8984V40.615L12.9014 40.6179V40.6189H12.9023V40.6199H12.9033V40.6208L12.9062 40.6238V40.6248H12.9072V40.6257H12.9082V40.6267L12.9111 40.6296V40.6306H12.9121V40.6316H12.9131V40.6326L12.9141 40.6335L12.915 40.6345L12.916 40.6355V40.6365L12.917 40.6375H12.918V40.6384L12.9189 40.6394L12.9199 40.6404L12.9209 40.6414V40.6423L12.9219 40.6433H12.9229V40.6443L12.9238 40.6453L12.9248 40.6462L12.9258 40.6472V40.6482H12.9268V40.6492H12.9277V40.6501L12.9307 40.6531V40.6541H12.9316V40.655H12.9326V40.656L12.9346 40.658V40.6589H12.9355V40.6599H12.9365V40.6609L12.9375 40.6619H12.9385V40.6628L12.9395 40.6638V40.6648H12.9404V40.6658H12.9414V40.6667L12.9424 40.6677L12.9434 40.6687L12.9443 40.6697V40.6707H12.9453V40.6716H12.9463V40.6726L12.9473 40.6736L12.9492 40.6755V40.6765H12.9502V40.6775H12.9512V40.6785L12.9521 40.6794L12.9541 40.6814V40.6824H12.9551V40.6833L12.9561 40.6843H12.957V40.6853L12.958 40.6863V40.6873H12.959L12.96 40.6882V40.6892H12.9609V40.6902H12.9619V40.6912L12.9639 40.6931V40.6941H12.9648V40.6951H12.9658V40.696L12.9668 40.697L12.9678 40.698L12.9688 40.699V40.7H12.9697V40.7009H12.9707V40.7019L12.9717 40.7029L12.9736 40.7048V40.7058H12.9746V40.7068L12.9756 40.7078C13.38 41.1869 13.815 41.5985 14.2959 41.991L14.2998 41.9949H14.3008L14.3018 41.9958L14.3047 41.9988H14.3057V41.9998H14.3066L14.3076 42.0007L14.3105 42.0037H14.3115V42.0046H14.3125L14.3164 42.0085H14.3174V42.0095H14.3184L14.3213 42.0125H14.3223V42.0134H14.3232V42.0144H14.3242L14.3271 42.0173H14.3281V42.0183H14.3291L14.3301 42.0193L14.332 42.0212H14.333V42.0222H14.334V42.0232H14.335L14.3359 42.0242L14.3379 42.0261H14.3389V42.0271H14.3398V42.0281H14.3408L14.3418 42.0291L14.3438 42.031H14.3447V42.032H14.3457V42.033H14.3467L14.3477 42.0339L14.3486 42.0349H14.3496V42.0359H14.3506V42.0369H14.3516V42.0378H14.3525L14.3545 42.0398H14.3555V42.0408H14.3564V42.0417H14.3574V42.0427H14.3584L14.3594 42.0437H14.3604V42.0447H14.3613V42.0457H14.3623V42.0466H14.3633V42.0476H14.3643L14.3652 42.0486H14.3662V42.0496H14.3672V42.0505H14.3682V42.0515H14.3691V42.0525H14.3701L14.3711 42.0535H14.3721V42.0544H14.373V42.0554H14.374V42.0564H14.375V42.0574H14.377V42.0583H14.3779V42.0593H14.3789V42.0603H14.3799V42.0613H14.3809V42.0623H14.3828V42.0632H14.3838V42.0642H14.3848V42.0652H14.3857V42.0662H14.3867L14.3877 42.0671H14.3887V42.0681H14.3896V42.0691H14.3906V42.0701H14.3916V42.071L14.3936 42.072H14.3945V42.073H14.3955V42.074H14.3965V42.075H14.3975L14.3994 42.0769H14.4004V42.0779H14.4014V42.0789H14.4023L14.4053 42.0818H14.4062V42.0828H14.4072V42.0837H14.4082L14.4121 42.0876H14.4131L14.418 42.0925H14.4189L14.4238 42.0974H14.4248L14.4287 42.1013H14.4297V42.1023H14.4307L14.4336 42.1052H14.4346V42.1062H14.4355V42.1072H14.4365L14.4375 42.1082L14.4395 42.1101H14.4404V42.1111H14.4414V42.1121H14.4424L14.4434 42.113L14.4443 42.114H14.4453V42.115H14.4463V42.116H14.4473V42.1169H14.4482V42.1179H14.4502V42.1189H14.4512V42.1199H14.4521V42.1208H14.4531V42.1218H14.4541L14.4561 42.1238H14.457V42.1248H14.458V42.1257H14.459L14.4619 42.1287H14.4629V42.1296H14.4639L14.4688 42.1345H14.4697L14.4736 42.1384H14.4746V42.1394H14.4756L14.4785 42.1423H14.4795V42.1433H14.4805V42.1443H14.4814L14.4824 42.1453L14.4834 42.1462H14.4844V42.1472H14.4854V42.1482H14.4863V42.1492H14.4873V42.1501H14.4883L14.4893 42.1511H14.4902V42.1521H14.4912V42.1531H14.4922V42.1541H14.4932L14.4951 42.156H14.4961V42.157H14.4971V42.158H14.498L14.502 42.1619H14.5029L14.5078 42.1667H14.5088V42.1677H14.5098L14.5117 42.1697H14.5127V42.1707H14.5137V42.1716H14.5146V42.1726H14.5156V42.1736H14.5176V42.1746H14.5186V42.1755H14.5195V42.1765H14.5205V42.1775H14.5215L14.5234 42.1794H14.5244V42.1804H14.5254V42.1814H14.5264L14.5303 42.1853H14.5312L14.5322 42.1863L14.5352 42.1892H14.5361V42.1902H14.5371V42.1912H14.5381V42.1921H14.54V42.1931H14.541V42.1941H14.542V42.1951H14.543V42.196H14.5439L14.5469 42.199H14.5479V42.2H14.5488L14.5527 42.2039H14.5537V42.2048H14.5547L14.5566 42.2068H14.5576V42.2078H14.5586V42.2087H14.5596V42.2097H14.5605V42.2107L14.5625 42.2117H14.5635V42.2126H14.5645V42.2136H14.5654L14.5703 42.2185H14.5713L14.5732 42.2205C18.1384 45.1023 22.898 45.8847 27.3174 45.4392H27.3203C30.8274 45.0466 34.0483 43.6496 36.5654 41.1326C36.6931 41.0049 36.8194 40.8802 36.9492 40.7615L36.9502 40.7605C40.3466 37.613 41.7139 32.2879 42.2402 27.9617C42.2488 27.8957 42.2577 27.8295 42.2666 27.7615V27.7585C42.3605 26.9564 42.3525 26.156 42.3506 25.3718V24.8982C42.3506 24.472 42.3503 24.0459 42.3496 23.6199C42.349 23.1738 42.3488 22.7273 42.3486 22.281C42.3483 21.4372 42.3477 20.5935 42.3467 19.7498C42.3456 18.7886 42.3452 17.8272 42.3447 16.866C42.3437 14.8897 42.342 12.9135 42.3398 10.9373V10.7156Z" fill="white" stroke="#164C9E" stroke-width="0.5"/>
<path d="M34.895 15.8708C35.2868 16.0604 35.5113 16.2892 35.6997 16.6863C35.843 17.2599 35.7263 17.7034 35.4155 18.238C35.1733 18.6268 34.9172 19.0068 34.6567 19.3904L34.6548 19.3933C34.5366 19.5713 34.4181 19.7492 34.3003 19.9275L33.52 21.0974C33.065 21.776 32.6169 22.4587 32.1704 23.1414C32.112 23.2306 32.1116 23.2312 32.0522 23.322C31.8179 23.6802 31.5833 24.0389 31.3491 24.3972C31.1687 24.6732 30.9886 24.9494 30.8081 25.2253C30.3974 25.8533 29.9862 26.481 29.5757 27.1091C29.0225 27.9556 28.4691 28.802 27.9155 29.6482C27.8764 29.708 27.8377 29.7682 27.7974 29.8298C27.5497 30.2084 27.302 30.5871 27.0542 30.9656C26.9753 31.0861 26.8957 31.2064 26.8169 31.3269C26.6351 31.6047 26.4533 31.8826 26.271 32.1599C26.1283 32.3771 25.986 32.5945 25.8442 32.8123C25.7756 32.9169 25.707 33.0218 25.6362 33.1296H25.6353C25.5461 33.2662 25.5445 33.2698 25.4575 33.4031C25.2239 33.7282 24.9774 33.9519 24.6313 34.1316C24.4361 34.1553 24.4231 34.1562 24.147 34.1677H24.1411L24.1401 34.1687H24.1245V34.1697H24.1079V34.1707H24.0923L24.0913 34.1716H24.0757V34.1726H24.0601L24.0591 34.1736H24.0435V34.1746H24.0278L24.0269 34.1755H24.0112V34.1765H23.9956L23.9946 34.1775H23.979V34.1785H23.9634L23.9624 34.1794H23.9468L23.9458 34.1804H23.9302V34.1814H23.9146L23.9136 34.1824H23.8979V34.1833H23.8813C23.5734 34.1195 23.2863 33.9443 23.0015 33.7048C22.702 33.4531 22.4446 33.1694 22.1577 32.8943L22.1567 32.8933L21.7437 32.5017C21.6454 32.4086 21.6448 32.4084 21.5444 32.3132L21.0854 31.8904C20.9316 31.7513 20.7771 31.6134 20.6235 31.4763C20.2799 31.1673 19.9403 30.8535 19.5991 30.5378C19.2409 30.2065 18.8819 29.8753 18.522 29.5457C18.4741 29.5018 18.4258 29.458 18.3765 29.4128C18.28 29.3245 18.1839 29.2356 18.0874 29.1472C17.8438 28.9241 17.5996 28.7006 17.356 28.4773L16.4771 27.6716C16.4288 27.6274 16.3803 27.5834 16.3306 27.5378L16.0405 27.2712L15.269 26.572V26.571H15.2681L15.2671 26.5701L15.2651 26.5681H15.2642V26.5671L15.2632 26.5662H15.2622V26.5652H15.2612L15.2603 26.5642V26.5632H15.2593L15.2583 26.5623L15.2573 26.5613L15.2554 26.5593L15.2544 26.5583H15.2534V26.5574H15.2524V26.5564H15.2515V26.5554H15.2505V26.5544H15.2495L15.2485 26.5535L15.2466 26.5515L15.2456 26.5505L15.2446 26.5496H15.2437V26.5486H15.2427V26.5476H15.2417V26.5466H15.2407L15.2397 26.5457L15.2388 26.5447L15.2368 26.5427L15.2358 26.5417L15.2349 26.5408H15.2339V26.5398H15.2329V26.5388H15.2319V26.5378H15.231L15.23 26.5369V26.5359H15.229L15.2271 26.5339L15.2261 26.533L15.2251 26.532H15.2241V26.531H15.2231V26.53H15.2222V26.5291H15.2212L15.2202 26.5281L15.2173 26.5251L15.2163 26.5242L15.2153 26.5232H15.2144V26.5222H15.2134V26.5212H15.2124V26.5203H15.2114L15.2104 26.5193L15.2085 26.5173L15.2075 26.5164L15.2065 26.5154L15.2056 26.5144H15.2046V26.5134H15.2036V26.5125H15.2026L15.2017 26.5115V26.5105H15.2007L15.1987 26.5085L15.1978 26.5076L15.1968 26.5066L15.1958 26.5056H15.1948V26.5046H15.1938V26.5037H15.1929L15.1919 26.5027L15.1909 26.5017L15.189 26.4998L15.188 26.4988L15.187 26.4978L15.186 26.4968H15.1851V26.4958H15.1841V26.4949H15.1831V26.4939H15.1821L15.1812 26.4929L15.1782 26.49L15.1772 26.489H15.1763V26.488H15.1753V26.4871H15.1743V26.4861H15.1733V26.4851H15.1724L15.1714 26.4841L15.1704 26.4832L15.1685 26.4812L15.1675 26.4802L15.1665 26.4792H15.1655V26.4783H15.1646L15.1636 26.4773V26.4763H15.1626V26.4753H15.1616L15.1606 26.4744L15.1587 26.4724H15.1577V26.4714H15.1567V26.4705L15.1558 26.4695H15.1548V26.4685H15.1538L15.1528 26.4675L15.1499 26.4646L15.1489 26.4636L15.1479 26.4626H15.147V26.4617H15.146V26.4607H15.145V26.4597H15.144L15.1431 26.4587L15.1421 26.4578L15.1392 26.4548L15.1382 26.4539H15.1372V26.4529H15.1362V26.4519H15.1353L15.1343 26.4509V26.45H15.1333L15.1284 26.4451H15.1274V26.4441H15.1265V26.4431H15.1255V26.4421H15.1245L15.1235 26.4412L15.1226 26.4402L15.1196 26.4373L15.1187 26.4363H15.1177V26.4353H15.1167V26.4343H15.1157L15.1147 26.4333V26.4324H15.1138L15.1108 26.4294L15.1099 26.4285H15.1089V26.4275H15.1079V26.4265H15.1069C14.9589 26.2936 14.8107 26.161 14.6626 26.0291C14.4885 25.8531 14.4011 25.7207 14.3511 25.5847C14.2994 25.4442 14.2796 25.2782 14.2759 25.0173C14.2807 24.7678 14.297 24.5977 14.3452 24.45C14.3907 24.3107 14.4701 24.175 14.6255 24.0095C14.8213 23.8235 14.9991 23.7357 15.1899 23.6902C15.3866 23.6434 15.6029 23.6387 15.895 23.6355C16.1601 23.687 16.3957 23.8205 16.6274 24.0046C16.8713 24.1985 17.0866 24.4266 17.3325 24.6619L17.3335 24.6628L17.7251 25.033C17.7877 25.0922 17.8501 25.1517 17.9146 25.2126H17.9155C18.1398 25.4233 18.3675 25.6293 18.5952 25.8328C19.0181 26.2108 19.4362 26.5957 19.854 26.9822C20.2603 27.358 20.6681 27.7326 21.0767 28.1062C21.3206 28.3293 21.5635 28.5532 21.8052 28.7781C22.4403 29.3674 23.0923 29.9282 23.77 30.4685L24.0444 30.6882L24.1616 30.3562V30.3552L24.1626 30.3542V30.3523L24.1636 30.3513V30.3494H24.1646V30.3474L24.1655 30.3464V30.3445L24.1665 30.3435V30.3416L24.1675 30.3406V30.3386H24.1685V30.3357H24.1694V30.3328H24.1704V30.3298H24.1714V30.3279L24.1724 30.3269V30.325L24.1733 30.324V30.322L24.1743 30.321V30.3191H24.1753V30.3162H24.1763V30.3132H24.1772V30.3103H24.1782V30.3083L24.1792 30.3074V30.3054H24.1802V30.3025H24.1812V30.2996H24.1821V30.2966H24.1831V30.2947L24.1841 30.2937V30.2917L24.1851 30.2908V30.2888L24.186 30.2878V30.2859H24.187V30.283H24.188V30.28H24.189V30.2781L24.1899 30.2771V30.2751L24.1909 30.2742V30.2722H24.1919V30.2693H24.1929V30.2664H24.1938V30.2634H24.1948V30.2605H24.1958V30.2585L24.1968 30.2576V30.2556L24.1978 30.2546V30.2527H24.1987V30.2498H24.1997V30.2478L24.2007 30.2468V30.2449L24.2017 30.2439V30.2419L24.2026 30.241V30.239L24.2036 30.238V30.2361H24.2046V30.2332H24.2056V30.2312L24.2065 30.2302V30.2283L24.2075 30.2273V30.2253L24.2085 30.2244V30.2224L24.2095 30.2214V30.2195H24.2104V30.2166H24.2114V30.2146L24.2124 30.2136V30.2117L24.2134 30.2107V30.2087L24.2144 30.2078V30.2058L24.2153 30.2048V30.2029H24.2163V30.2H24.2173V30.198L24.2183 30.197V30.1951L24.2192 30.1941V30.1921L24.2202 30.1912V30.1892L24.2212 30.1882V30.1863H24.2222V30.1833H24.2231V30.1804H24.2241V30.1785L24.2251 30.1775V30.1755L24.2261 30.1746V30.1726H24.2271V30.1697H24.228V30.1667H24.229V30.1638H24.23V30.1619C24.3592 29.8658 24.5282 29.6076 24.7241 29.323L24.7251 29.321C24.8141 29.1897 24.903 29.058 24.9917 28.9265C25.0413 28.8531 25.091 28.7795 25.1421 28.7039V28.7029C25.4599 28.2281 25.7718 27.7495 26.0825 27.2732C26.2268 27.0523 26.3708 26.8311 26.5151 26.6101C26.5519 26.5538 26.5886 26.4972 26.6265 26.4392C27.0094 25.8528 27.3938 25.2664 27.7778 24.6804C28.4073 23.72 29.0362 22.7588 29.6646 21.7976C29.7318 21.6947 29.7994 21.5921 29.8687 21.4861C30.2534 20.8976 30.6378 20.3083 31.022 19.7195C31.3315 19.2452 31.642 18.7714 31.9526 18.2976H31.9536C32.1336 18.0224 32.3113 17.746 32.4897 17.4705L32.4907 17.4714C32.5945 17.3125 32.6984 17.1537 32.8022 16.9949L32.8032 16.9929C32.8481 16.923 32.8928 16.853 32.939 16.781C33.2233 16.3489 33.48 16.1119 33.7681 15.9851C34.0516 15.8604 34.3982 15.8282 34.895 15.8708Z" fill="white" stroke="#164C9E" stroke-width="0.5"/>
</svg>
