<svg width="33" height="33" viewBox="0 0 33 33" fill="none" xmlns="http://www.w3.org/2000/svg">
<path d="M16.5 31.2812C8.34625 31.2812 1.71875 24.6537 1.71875 16.5C1.71875 8.34625 8.34625 1.71875 16.5 1.71875C24.6537 1.71875 31.2812 8.34625 31.2812 16.5C31.2812 24.6537 24.6537 31.2812 16.5 31.2812ZM16.5 3.78125C9.4875 3.78125 3.78125 9.4875 3.78125 16.5C3.78125 23.5125 9.4875 29.2188 16.5 29.2188C23.5125 29.2188 29.2188 23.5125 29.2188 16.5C29.2188 9.4875 23.5125 3.78125 16.5 3.78125Z" fill="#1E6EE7"/>
<path d="M21.6021 21.9037C21.4234 21.9037 21.2446 21.8625 21.0796 21.7525L16.8171 19.2087C15.7584 18.5762 14.9746 17.1875 14.9746 15.9637V10.3262C14.9746 9.7625 15.4421 9.295 16.0059 9.295C16.5696 9.295 17.0371 9.7625 17.0371 10.3262V15.9637C17.0371 16.4587 17.4496 17.1875 17.8759 17.435L22.1384 19.9787C22.6334 20.2675 22.7846 20.9 22.4959 21.395C22.2896 21.725 21.9459 21.9037 21.6021 21.9037Z" fill="#1E6EE7"/>
</svg>
