<svg width="36" height="36" viewBox="0 0 36 36" fill="none" xmlns="http://www.w3.org/2000/svg">
<path d="M25.4531 12.4453C27.2541 13.026 28.9597 14.3811 30.3047 15.6797C30.3561 15.7292 30.4075 15.7786 30.4604 15.8296C32.078 17.3951 32.078 17.3951 32.3438 17.9297C32.2849 18.2585 32.0451 18.4939 31.8296 18.7383C31.7904 18.783 31.7512 18.8277 31.7108 18.8738C30.8695 19.8177 29.9822 20.7573 28.952 21.4969C28.8159 21.5948 28.6814 21.6947 28.5469 21.7947C27.8523 22.3043 27.1322 22.7378 26.3672 23.1328C26.308 23.1639 26.2488 23.195 26.1878 23.227C24.5725 24.0674 22.8213 24.6635 21.0234 24.9609C20.9551 24.9722 20.8868 24.9836 20.8163 24.9952C18.4534 25.3654 15.7175 25.372 13.4297 24.6094C13.5938 24.2173 13.9247 23.9395 14.2186 23.6421C14.326 23.5329 14.4315 23.4221 14.5371 23.3112C14.6055 23.2417 14.674 23.1722 14.7426 23.1029C14.8351 23.0078 14.8351 23.0078 14.9295 22.9108C15.1172 22.7812 15.1172 22.7812 15.3394 22.7915C15.5456 22.8535 15.7345 22.9288 15.9302 23.0186C17.2075 23.5579 18.5206 23.5559 19.8281 23.1328C19.9252 23.1024 19.9252 23.1024 20.0242 23.0713C21.3199 22.6106 22.2762 21.5766 22.9087 20.3906C23.54 19.0538 23.6003 17.5647 23.1328 16.1719C23.0647 16.0032 22.9941 15.8404 22.9101 15.6791C22.8207 15.4652 22.7767 15.3563 22.7812 15.1172C22.9451 14.8808 23.1516 14.6898 23.3589 14.4915C23.4183 14.4328 23.4777 14.3741 23.5389 14.3136C23.7291 14.1262 23.9209 13.9405 24.1128 13.7549C24.2419 13.6282 24.371 13.5014 24.4999 13.3745C24.8164 13.0634 25.1342 12.7539 25.4531 12.4453Z" fill="black" fill-opacity="0.7"/>
<path d="M22.5703 11.3906C22.4063 11.7836 22.0725 12.0606 21.7775 12.3578C21.6695 12.4672 21.5631 12.5779 21.4567 12.6888C21.3881 12.7583 21.3194 12.8278 21.2506 12.8971C21.1885 12.9605 21.1264 13.0239 21.0625 13.0892C20.8828 13.2187 20.8828 13.2187 20.7 13.2096C20.4623 13.1234 20.2259 13.0347 19.9907 12.9419C18.724 12.4615 17.4619 12.4498 16.1719 12.8672C16.1072 12.8875 16.0424 12.9078 15.9758 12.9287C14.7544 13.363 13.7509 14.3388 13.1484 15.4687C12.9758 15.8336 12.8454 16.2084 12.7266 16.5937C12.7079 16.6524 12.6892 16.711 12.67 16.7715C12.3641 17.9636 12.5976 19.2784 13.0899 20.3827C13.158 20.5556 13.2019 20.6968 13.2188 20.8828C13.1258 21.0265 13.1258 21.0265 12.9815 21.168C12.928 21.2215 12.8745 21.2749 12.8193 21.33C12.7605 21.3866 12.7017 21.4433 12.6411 21.5016C12.5817 21.5604 12.5223 21.6192 12.4611 21.6798C12.2708 21.8678 12.079 22.0543 11.8872 22.2407C11.7581 22.3677 11.629 22.4949 11.5001 22.6221C11.1834 22.9341 10.8656 23.2448 10.5469 23.5547C8.74594 22.974 7.04033 21.6189 5.69531 20.3203C5.61823 20.2461 5.61823 20.2461 5.53958 20.1704C3.92196 18.6049 3.92196 18.6049 3.65625 18.0703C3.71507 17.7415 3.95489 17.5061 4.17041 17.2617C4.22922 17.1947 4.22922 17.1947 4.28922 17.1262C5.13047 16.1823 6.0178 15.2427 7.048 14.5031C7.18414 14.4052 7.31856 14.3053 7.45312 14.2053C8.14772 13.6957 8.86782 13.2622 9.63281 12.8672C9.69202 12.8361 9.75123 12.805 9.81223 12.773C11.4275 11.9325 13.1787 11.3365 14.9766 11.0391C15.0449 11.0278 15.1132 11.0164 15.1837 11.0048C17.5466 10.6346 20.2825 10.628 22.5703 11.3906Z" fill="black" fill-opacity="0.7"/>
<path d="M27.5625 8.22657C27.7636 8.37476 27.8307 8.4686 27.9097 8.70557C27.9189 9.17401 27.7024 9.44054 27.3922 9.76865C27.2571 9.90548 27.1213 10.0414 26.9849 10.1768C26.9093 10.2528 26.8338 10.3288 26.7584 10.4049C26.5514 10.6134 26.3435 10.821 26.1354 11.0284C25.911 11.2525 25.6874 11.4773 25.4637 11.7021C25.0256 12.1421 24.5866 12.5813 24.1473 13.0202C23.7904 13.3769 23.4336 13.7339 23.0771 14.091C23.001 14.1673 23.001 14.1673 22.9233 14.2451C22.8203 14.3483 22.7172 14.4516 22.6141 14.5548C21.6474 15.523 20.6798 16.4903 19.712 17.4573C18.8264 18.3421 17.942 19.2282 17.0581 20.1147C16.1506 21.025 15.2422 21.9344 14.3331 22.8431C13.8227 23.3532 13.3125 23.8637 12.8032 24.375C12.3697 24.8102 11.9355 25.2446 11.5003 25.6781C11.2782 25.8993 11.0565 26.1209 10.8357 26.3433C10.6336 26.547 10.4305 26.7497 10.2267 26.9516C10.1531 27.0248 10.0799 27.0983 10.007 27.1723C9.32143 27.8677 9.32143 27.8677 8.78908 27.9141C8.45897 27.8329 8.33719 27.7654 8.15187 27.479C8.0726 27.1566 8.08629 26.9445 8.22658 26.6484C8.44192 26.3712 8.69034 26.1283 8.94001 25.8824C9.01591 25.8061 9.09171 25.7297 9.16743 25.6533C9.3754 25.4438 9.58466 25.2357 9.79415 25.0278C10.02 24.8032 10.2446 24.5774 10.4694 24.3517C10.9098 23.91 11.3513 23.4694 11.7932 23.0292C12.3076 22.5167 12.821 22.0031 13.3344 21.4894C14.2503 20.5731 15.1672 19.6578 16.0847 18.7431C16.9752 17.8552 17.8649 16.9665 18.7537 16.077C19.7214 15.1084 20.6895 14.1403 21.6584 13.173C21.7617 13.0699 21.865 12.9668 21.9682 12.8637C22.0191 12.8129 22.0699 12.7622 22.1222 12.7099C22.4806 12.3522 22.8386 11.9941 23.1965 11.6359C23.6325 11.1995 24.0691 10.7637 24.5063 10.3285C24.7295 10.1064 24.9524 9.8841 25.1747 9.66116C25.3781 9.45716 25.5821 9.25383 25.7867 9.051C25.8607 8.97745 25.9344 8.90365 26.0079 8.8296C26.1077 8.72909 26.2084 8.62952 26.3092 8.53C26.365 8.4744 26.4207 8.4188 26.4781 8.36151C26.8474 8.06902 27.1318 8.05111 27.5625 8.22657Z" fill="black" fill-opacity="0.7"/>
<path d="M20.6016 17.4375C20.8073 18.0546 20.6314 18.6823 20.3906 19.2656C20.0158 19.9354 19.4312 20.3807 18.7031 20.6016C18.462 20.6593 18.239 20.6814 17.9912 20.6807C17.9018 20.6809 17.9018 20.6809 17.8105 20.6812C17.6484 20.6719 17.6484 20.6719 17.4375 20.6016C17.5408 20.3632 17.6736 20.207 17.8565 20.0238C17.9137 19.9661 17.971 19.9084 18.03 19.8489C18.0919 19.7873 18.1538 19.7257 18.2175 19.6622C18.281 19.5986 18.3444 19.5351 18.4098 19.4695C18.5439 19.3353 18.6782 19.2013 18.8127 19.0674C18.9853 18.8956 19.1573 18.7232 19.3291 18.5505C19.4929 18.3861 19.6572 18.2222 19.8215 18.0582C19.8834 17.9961 19.9453 17.9339 20.0091 17.8698C20.0663 17.813 20.1236 17.7562 20.1826 17.6977C20.233 17.6473 20.2835 17.5969 20.3355 17.5451C20.4609 17.4375 20.4609 17.4375 20.6016 17.4375Z" fill="black" fill-opacity="0.7"/>
<path d="M18.0097 15.3193C18.0991 15.3191 18.0991 15.3191 18.1904 15.3188C18.3525 15.3281 18.3525 15.3281 18.5634 15.3984C18.4601 15.6368 18.3273 15.793 18.1444 15.9762C18.0872 16.0339 18.0299 16.0916 17.9709 16.1511C17.909 16.2127 17.8471 16.2743 17.7834 16.3378C17.7199 16.4014 17.6565 16.4649 17.5911 16.5305C17.457 16.6647 17.3227 16.7987 17.1882 16.9326C17.0156 17.1044 16.8436 17.2768 16.6718 17.4495C16.508 17.6139 16.3437 17.7778 16.1794 17.9418C16.0865 18.035 16.0865 18.035 15.9918 18.1302C15.9346 18.187 15.8773 18.2438 15.8183 18.3023C15.7678 18.3527 15.7174 18.4031 15.6654 18.4549C15.54 18.5625 15.54 18.5625 15.3993 18.5625C15.1936 17.9454 15.3695 17.3177 15.6103 16.7344C15.9851 16.0646 16.5697 15.6193 17.2978 15.3984C17.5389 15.3407 17.7619 15.3186 18.0097 15.3193Z" fill="black" fill-opacity="0.7"/>
</svg>
