<svg width="18" height="22" viewBox="0 0 18 22" fill="none" xmlns="http://www.w3.org/2000/svg">
<path d="M9.39823 0.313042C9.21622 0.105026 8.95006 -0.00975553 8.67385 0.000651128C8.39767 0.0110568 8.14093 0.145516 7.97508 0.366602L7.97503 0.366663L7.97489 0.366853L7.97388 0.3682L7.96929 0.374302L7.95007 0.399742C7.93289 0.422431 7.90712 0.456363 7.87351 0.500311C7.80626 0.588226 7.70772 0.716111 7.5839 0.874177C7.33603 1.19061 6.98804 1.62645 6.58788 2.10384C5.77325 3.07567 4.79241 4.15884 4.0107 4.7842C1.56291 6.74244 0 9.27647 0 12.375C0 15.1332 1.01049 17.3323 2.64499 18.8361C4.26757 20.3288 6.44628 21.0833 8.70836 21.0833C13.1963 21.0833 17.875 18.0553 17.875 12.375C17.875 9.71004 17.2682 7.74263 16.6401 6.4236C16.3269 5.76586 16.0101 5.27286 15.7645 4.93722C15.6417 4.7694 15.5367 4.64085 15.4587 4.55061C15.4197 4.50548 15.3874 4.46991 15.3631 4.44377C15.3509 4.4307 15.3407 4.41999 15.3326 4.41161L15.3221 4.4008L15.3181 4.39671L15.3163 4.39499L15.3156 4.39421C15.3152 4.39384 15.3148 4.39349 14.6667 5.04167L15.3148 4.39349C15.0902 4.16884 14.7653 4.07653 14.4561 4.14952C14.1492 4.22197 13.9012 4.44699 13.7993 4.74502L13.7968 4.75195C13.7932 4.76165 13.7859 4.78057 13.7745 4.80766C13.7518 4.86191 13.713 4.9484 13.655 5.05874C13.5386 5.27987 13.3466 5.59339 13.054 5.93469C12.6897 6.35968 12.1642 6.8347 11.4192 7.22991C11.4658 6.92291 11.501 6.58507 11.515 6.22273C11.5791 4.55437 11.1895 2.36024 9.39823 0.313042ZM7.99288 3.28158C8.25223 2.97218 8.49014 2.68002 8.6948 2.42437C9.53379 3.75589 9.72407 5.08392 9.68297 6.15227C9.65756 6.8129 9.54298 7.37257 9.43563 7.76411C9.38214 7.95919 9.33102 8.11043 9.29493 8.20912C9.27691 8.2584 9.26271 8.29437 9.25395 8.31594L9.2451 8.33728C9.24457 8.33851 9.24426 8.33924 9.24416 8.33948L9.24458 8.33851L9.24497 8.33763C9.10351 8.65753 9.15643 9.03013 9.38151 9.29801C9.60695 9.56633 9.96566 9.68263 10.3057 9.59763C12.3449 9.08782 13.65 8.05644 14.446 7.12781C14.5564 6.99902 14.6567 6.87254 14.7477 6.75008C14.8251 6.88983 14.9048 7.04368 14.9849 7.21182C15.5026 8.29904 16.0417 9.99829 16.0417 12.375C16.0417 15.3538 14.4071 17.4488 12.1848 18.4924C12.3058 18.1516 12.375 17.7896 12.375 17.4167C12.375 15.8909 11.4645 14.7465 10.7027 14.0482C10.31 13.6882 9.92109 13.4132 9.63154 13.2282C9.48586 13.1351 9.36295 13.0633 9.27409 13.0136C9.2296 12.9887 9.19347 12.9692 9.16708 12.9553L9.13491 12.9386L9.12459 12.9333L9.12093 12.9314L9.11948 12.9307L9.11885 12.9304C9.11856 12.9302 9.11828 12.9301 8.70833 13.75L9.11828 12.9301L8.70833 12.7251L8.29839 12.9301L8.70833 13.75C8.29839 12.9301 8.29811 12.9302 8.29782 12.9304L8.29719 12.9307L8.29574 12.9314L8.29207 12.9333L8.28175 12.9386L8.24959 12.9553C8.2232 12.9692 8.18706 12.9887 8.14257 13.0136C8.05371 13.0633 7.9308 13.1351 7.78512 13.2282C7.49558 13.4132 7.10665 13.6882 6.71392 14.0482C5.95216 14.7465 5.04167 15.8909 5.04167 17.4167C5.04167 17.762 5.09599 18.095 5.19334 18.4093C4.71725 18.1559 4.27811 17.8474 3.88626 17.4869C2.65618 16.3552 1.83333 14.6585 1.83333 12.375C1.83333 9.97353 3.02043 7.92423 5.15597 6.2158C6.09301 5.46617 7.17468 4.25767 7.99288 3.28158ZM9.24534 8.3368C9.2455 8.33643 9.24567 8.33604 10.0833 8.70833L9.24567 8.33604L9.24534 8.3368ZM9.46392 15.3997C10.0772 15.9618 10.5417 16.6507 10.5417 17.4167C10.5417 17.806 10.3378 18.2721 9.95078 18.6591C9.5638 19.0461 9.0977 19.25 8.70833 19.25C8.29991 19.25 7.83342 19.0528 7.45857 18.6862C7.08655 18.3225 6.875 17.861 6.875 17.4167C6.875 16.6507 7.33951 15.9618 7.95275 15.3997C8.22054 15.1542 8.49147 14.9568 8.70833 14.8145C8.9252 14.9568 9.19613 15.1542 9.46392 15.3997Z" fill="white"/>
</svg>
