<svg width="26" height="26" viewBox="0 0 26 26" fill="none" xmlns="http://www.w3.org/2000/svg">
<path d="M12.9998 23.4542C12.664 23.4542 12.339 23.4108 12.0682 23.3133C7.92984 21.8942 1.354 16.8567 1.354 9.41417C1.354 5.6225 4.41984 2.54584 8.18984 2.54584C10.0207 2.54584 11.7323 3.26084 12.9998 4.53917C14.2673 3.26084 15.979 2.54584 17.8098 2.54584C21.5798 2.54584 24.6457 5.63334 24.6457 9.41417C24.6457 16.8675 18.0698 21.8942 13.9315 23.3133C13.6607 23.4108 13.3357 23.4542 12.9998 23.4542ZM8.18984 4.17084C5.319 4.17084 2.979 6.52167 2.979 9.41417C2.979 16.8133 10.0965 20.93 12.599 21.7858C12.794 21.8508 13.2165 21.8508 13.4115 21.7858C15.9032 20.93 23.0315 16.8242 23.0315 9.41417C23.0315 6.52167 20.6915 4.17084 17.8207 4.17084C16.174 4.17084 14.6465 4.94 13.6607 6.2725C13.3573 6.68417 12.664 6.68417 12.3607 6.2725C11.3532 4.92917 9.8365 4.17084 8.18984 4.17084Z" fill="black"/>
</svg>
