<svg width="22" height="22" viewBox="0 0 22 22" fill="none" xmlns="http://www.w3.org/2000/svg">
<circle cx="11" cy="11" r="10.5" stroke="#676767" stroke-opacity="0.5"/>
<path d="M9.78894 13.144V5.8H12.2529V13.144H9.78894ZM11.0209 17.208C10.7436 17.208 10.4876 17.1387 10.2529 17C10.0183 16.872 9.8316 16.696 9.69294 16.472C9.56494 16.2373 9.50094 15.9707 9.50094 15.672C9.50094 15.256 9.64494 14.904 9.93294 14.616C10.2316 14.3173 10.5943 14.168 11.0209 14.168C11.4476 14.168 11.8103 14.3173 12.1089 14.616C12.4076 14.904 12.5569 15.256 12.5569 15.672C12.5569 15.9707 12.4876 16.2373 12.3489 16.472C12.2103 16.696 12.0236 16.872 11.7889 17C11.5649 17.1387 11.3089 17.208 11.0209 17.208Z" fill="#676767" fill-opacity="0.5"/>
</svg>
