<svg width="24" height="24" viewBox="0 0 24 24" fill="none" xmlns="http://www.w3.org/2000/svg">
<mask id="mask0_411_7589" style="mask-type:luminance" maskUnits="userSpaceOnUse" x="0" y="0" width="24" height="24">
<path d="M15.2256 0H15.1824H12.8952H8.7744C1.548 0 0 1.5504 0 8.7744V15.2256C0 22.452 1.5504 24 8.7744 24H12.8952H15.1824H15.2256C22.452 24 24 22.4496 24 15.2256V8.7744C24 1.548 22.4496 0 15.2256 0Z" fill="white"/>
</mask>
<g mask="url(#mask0_411_7589)">
<rect width="24" height="24" fill="#1E6EE7"/>
</g>
<path fill-rule="evenodd" clip-rule="evenodd" d="M11.9993 5.33337C10.1887 5.33337 9.96152 5.34129 9.25041 5.37365C8.54068 5.40615 8.05623 5.51851 7.63233 5.68338C7.19386 5.85365 6.82191 6.08143 6.45135 6.45213C6.08051 6.82268 5.85273 7.19463 5.6819 7.63296C5.51662 8.05699 5.40412 8.54157 5.37217 9.25101C5.34036 9.96212 5.33203 10.1895 5.33203 12C5.33203 13.8106 5.34009 14.0371 5.37231 14.7482C5.40495 15.458 5.51731 15.9424 5.68203 16.3663C5.85245 16.8048 6.08023 17.1767 6.45093 17.5473C6.82135 17.9181 7.1933 18.1464 7.6315 18.3167C8.05567 18.4816 8.54026 18.5939 9.24985 18.6264C9.96097 18.6588 10.1881 18.6667 11.9985 18.6667C13.8092 18.6667 14.0357 18.6588 14.7469 18.6264C15.4566 18.5939 15.9416 18.4816 16.3658 18.3167C16.8041 18.1464 17.1755 17.9181 17.5459 17.5473C17.9167 17.1767 18.1445 16.8048 18.3154 16.3664C18.4793 15.9424 18.5918 15.4578 18.6251 14.7484C18.657 14.0373 18.6654 13.8106 18.6654 12C18.6654 10.1895 18.657 9.96226 18.6251 9.25115C18.5918 8.54143 18.4793 8.05699 18.3154 7.6331C18.1445 7.19463 17.9167 6.82268 17.5459 6.45213C17.1751 6.08129 16.8042 5.85351 16.3653 5.68338C15.9403 5.51851 15.4556 5.40615 14.7459 5.37365C14.0348 5.34129 13.8084 5.33337 11.9972 5.33337H11.9993ZM11.7765 6.53469H11.7766L11.9988 6.53476C13.7788 6.53476 13.9897 6.54115 14.6927 6.57309C15.3427 6.60281 15.6955 6.71143 15.9305 6.80268C16.2416 6.92351 16.4634 7.06795 16.6966 7.30129C16.9299 7.53462 17.0744 7.75684 17.1955 8.06795C17.2867 8.30268 17.3955 8.65545 17.4251 9.30545C17.457 10.0082 17.464 10.2193 17.464 11.9985C17.464 13.7777 17.457 13.9888 17.4251 14.6916C17.3953 15.3416 17.2867 15.6943 17.1955 15.9291C17.0746 16.2402 16.9299 16.4617 16.6966 16.6949C16.4632 16.9282 16.2417 17.0727 15.9305 17.1935C15.6957 17.2852 15.3427 17.3935 14.6927 17.4232C13.9899 17.4552 13.7788 17.4621 11.9988 17.4621C10.2186 17.4621 10.0076 17.4552 9.30484 17.4232C8.65483 17.3932 8.30205 17.2846 8.06691 17.1934C7.75579 17.0725 7.53357 16.9281 7.30023 16.6948C7.0669 16.4614 6.92245 16.2398 6.80134 15.9285C6.71009 15.6938 6.60134 15.341 6.57175 14.691C6.53981 13.9882 6.53342 13.7771 6.53342 11.9968C6.53342 10.2166 6.53981 10.0066 6.57175 9.30379C6.60148 8.65379 6.71009 8.30101 6.80134 8.06601C6.92217 7.7549 7.0669 7.53268 7.30023 7.29934C7.53357 7.06601 7.75579 6.92156 8.06691 6.80045C8.30191 6.70879 8.65483 6.60045 9.30484 6.57059C9.91984 6.54281 10.1582 6.53448 11.4007 6.53309V6.53476C11.5168 6.53458 11.6417 6.53463 11.7764 6.53469H11.7765H11.7765ZM14.7578 8.44143C14.7578 7.99963 15.1161 7.64171 15.5578 7.64171V7.64143C15.9995 7.64143 16.3578 7.99977 16.3578 8.44143C16.3578 8.8831 15.9995 9.24143 15.5578 9.24143C15.1161 9.24143 14.7578 8.8831 14.7578 8.44143ZM11.9997 8.57642C10.109 8.57649 8.57617 10.1094 8.57617 12C8.57617 13.8907 10.1091 15.4229 11.9998 15.4229C13.8905 15.4229 15.4229 13.8907 15.4229 12C15.4229 10.1093 13.8904 8.57642 11.9997 8.57642ZM14.2218 12.0001C14.2218 10.7727 13.2268 9.77784 11.9996 9.77784C10.7722 9.77784 9.77734 10.7727 9.77734 12.0001C9.77734 13.2273 10.7722 14.2223 11.9996 14.2223C13.2268 14.2223 14.2218 13.2273 14.2218 12.0001Z" fill="white"/>
</svg>
