<svg width="24" height="24" viewBox="0 0 24 24" fill="none" xmlns="http://www.w3.org/2000/svg">
<g clip-path="url(#clip0_411_7600)">
<mask id="mask0_411_7600" style="mask-type:luminance" maskUnits="userSpaceOnUse" x="0" y="0" width="24" height="24">
<path d="M15.2256 0H15.1824H12.8952H8.7744C1.548 0 0 1.5504 0 8.7744V15.2256C0 22.452 1.5504 24 8.7744 24H12.8952H15.1824H15.2256C22.452 24 24 22.4496 24 15.2256V8.7744C24 1.548 22.4496 0 15.2256 0Z" fill="white"/>
</mask>
<g mask="url(#mask0_411_7600)">
<rect width="24" height="24" fill="#1E6EE7"/>
</g>
<path fill-rule="evenodd" clip-rule="evenodd" d="M12.2069 8.70783C10.5061 8.6183 9.17894 9.80298 8.88627 11.6572C8.64391 13.1927 9.07362 15.0638 9.44117 15.1579C9.59706 15.1979 9.97222 14.9098 10.2452 14.6515C10.2965 14.6029 10.3741 14.5947 10.4342 14.6317C10.8597 14.8928 11.3414 15.0891 11.8725 15.1171C13.6185 15.209 15.1658 13.8372 15.2573 12.0843C15.3487 10.3314 13.9529 8.79975 12.2069 8.70783ZM9.35887 17.6096C9.29302 17.5628 9.20229 17.5755 9.14711 17.6346C8.40948 18.4244 6.52172 18.9784 6.43525 17.9005C6.43525 17.0559 6.24629 16.3443 6.03824 15.5607C5.78344 14.601 5.5 13.5335 5.5 11.9821C5.5 8.28235 8.5226 5.5 12.1064 5.5C15.6902 5.5 18.5 8.4182 18.5 12.018C18.5 15.6178 15.6007 18.4641 12.1403 18.4641C10.9126 18.4641 10.3169 18.2905 9.35887 17.6096Z" fill="white"/>
</g>
<defs>
<clipPath id="clip0_411_7600">
<rect width="24" height="24" rx="5" fill="white"/>
</clipPath>
</defs>
</svg>
