<svg width="33" height="33" viewBox="0 0 33 33" fill="none" xmlns="http://www.w3.org/2000/svg">
<path d="M23.375 28.5312H11.6875C11.1237 28.5312 10.6562 28.0637 10.6562 27.5C10.6562 26.9363 11.1237 26.4688 11.6875 26.4688H23.375C27.3075 26.4688 29.2188 24.5575 29.2188 20.625V12.375C29.2188 8.4425 27.3075 6.53125 23.375 6.53125H9.625C5.6925 6.53125 3.78125 8.4425 3.78125 12.375V20.9C3.78125 21.4638 3.31375 21.9313 2.75 21.9313C2.18625 21.9313 1.71875 21.4638 1.71875 20.9V12.375C1.71875 7.35625 4.60625 4.46875 9.625 4.46875H23.375C28.3937 4.46875 31.2812 7.35625 31.2812 12.375V20.625C31.2812 25.6437 28.3937 28.5312 23.375 28.5312Z" fill="#1E6EE7"/>
<path d="M16.5 20.9688C14.0388 20.9688 12.0312 18.9612 12.0312 16.5C12.0312 14.0388 14.0388 12.0312 16.5 12.0312C18.9612 12.0312 20.9688 14.0388 20.9688 16.5C20.9688 18.9612 18.9612 20.9688 16.5 20.9688ZM16.5 14.0938C15.18 14.0938 14.0938 15.18 14.0938 16.5C14.0938 17.82 15.18 18.9062 16.5 18.9062C17.82 18.9062 18.9062 17.82 18.9062 16.5C18.9062 15.18 17.82 14.0938 16.5 14.0938Z" fill="#1E6EE7"/>
<path d="M25.4375 20.9688C24.8738 20.9688 24.4062 20.5013 24.4062 19.9375V13.0625C24.4062 12.4988 24.8738 12.0312 25.4375 12.0312C26.0013 12.0312 26.4688 12.4988 26.4688 13.0625V19.9375C26.4688 20.5013 26.0013 20.9688 25.4375 20.9688Z" fill="#1E6EE7"/>
<path d="M6.875 31.2812C4.5925 31.2812 2.4475 30.0713 1.2925 28.105C0.673753 27.115 0.34375 25.9462 0.34375 24.75C0.34375 21.1475 3.2725 18.2188 6.875 18.2188C10.4775 18.2188 13.4062 21.1475 13.4062 24.75C13.4062 25.9462 13.0762 27.115 12.4575 28.1188C11.3025 30.0713 9.1575 31.2812 6.875 31.2812ZM6.875 20.2812C4.41375 20.2812 2.40625 22.2888 2.40625 24.75C2.40625 25.5612 2.62621 26.3587 3.05246 27.0462C3.84996 28.3937 5.32125 29.2188 6.875 29.2188C8.42875 29.2188 9.90004 28.3937 10.6975 27.06C11.1238 26.3587 11.3438 25.575 11.3438 24.75C11.3438 22.2888 9.33625 20.2812 6.875 20.2812Z" fill="#1E6EE7"/>
<path d="M3.09426 29.5625C2.83301 29.5625 2.57172 29.4663 2.36547 29.26C1.96672 28.8612 1.96672 28.2012 2.36547 27.8024L9.92797 20.2399C10.3267 19.8412 10.9868 19.8412 11.3855 20.2399C11.7843 20.6387 11.7843 21.2987 11.3855 21.6975L3.82305 29.26C3.6168 29.4663 3.35551 29.5625 3.09426 29.5625Z" fill="#1E6EE7"/>
</svg>
