<svg width="20" height="19" viewBox="0 0 20 19" fill="none" xmlns="http://www.w3.org/2000/svg">
<path d="M13.8665 13.3195L18.7505 18M8.4385 15.4863C9.44817 15.4863 10.4479 15.2957 11.3808 14.9254C12.3136 14.5551 13.1611 14.0124 13.8751 13.3282C14.589 12.644 15.1554 11.8318 15.5417 10.9378C15.9281 10.0439 16.127 9.08574 16.127 8.11815C16.127 7.15055 15.9281 6.19242 15.5417 5.29848C15.1554 4.40453 14.589 3.59228 13.8751 2.90808C13.1611 2.22388 12.3136 1.68115 11.3808 1.31087C10.4479 0.940583 9.44817 0.75 8.4385 0.75C6.39938 0.75 4.44378 1.52628 3.00191 2.90808C1.56004 4.28988 0.75 6.16399 0.75 8.11815C0.75 10.0723 1.56004 11.9464 3.00191 13.3282C4.44378 14.71 6.39938 15.4863 8.4385 15.4863Z" stroke="#676767" stroke-width="1.5" stroke-miterlimit="10" stroke-linecap="round" stroke-linejoin="round"/>
</svg>
