<svg width="24" height="24" viewBox="0 0 24 24" fill="none" xmlns="http://www.w3.org/2000/svg">
<mask id="mask0_411_7574" style="mask-type:luminance" maskUnits="userSpaceOnUse" x="0" y="0" width="24" height="24">
<path d="M15.2256 0H15.1824H12.8952H8.7744C1.548 0 0 1.5504 0 8.7744V15.2256C0 22.452 1.5504 24 8.7744 24H12.8952H15.1824H15.2256C22.452 24 24 22.4496 24 15.2256V8.7744C24 1.548 22.4496 0 15.2256 0Z" fill="white"/>
</mask>
<g mask="url(#mask0_411_7574)">
<rect width="24" height="24" fill="#1E6EE7"/>
</g>
<path d="M4.74616 11.7001C6.14896 10.9274 7.71486 10.2825 9.17796 9.63428C11.6951 8.57258 14.2222 7.52928 16.7748 6.55798C17.2714 6.39249 18.1638 6.23067 18.2513 6.96664C18.2033 8.00844 18.0062 9.04414 17.8711 10.0798C17.5279 12.3574 17.1313 14.6272 16.7446 16.8973C16.6113 17.6535 15.6641 18.0449 15.058 17.561C13.6014 16.5772 12.1336 15.6028 10.6956 14.5961C10.2245 14.1175 10.6613 13.4301 11.082 13.0883C12.2817 11.906 13.554 10.9015 14.691 9.65813C14.9977 8.91752 14.0915 9.54168 13.7926 9.73294C12.1502 10.8647 10.548 12.0656 8.81638 13.0603C7.93188 13.5472 6.90098 13.1311 6.01688 12.8595C5.22419 12.5313 4.06258 12.2006 4.74608 11.7002L4.74616 11.7001Z" fill="white"/>
</svg>
