<svg width="24" height="24" viewBox="0 0 24 24" fill="none" xmlns="http://www.w3.org/2000/svg">
<mask id="mask0_411_7580" style="mask-type:luminance" maskUnits="userSpaceOnUse" x="0" y="0" width="24" height="24">
<path d="M15.2256 0H15.1824H12.8952H8.7744C1.548 0 0 1.5504 0 8.7744V15.2256C0 22.452 1.5504 24 8.7744 24H12.8952H15.1824H15.2256C22.452 24 24 22.4496 24 15.2256V8.7744C24 1.548 22.4496 0 15.2256 0Z" fill="white"/>
</mask>
<g mask="url(#mask0_411_7580)">
<rect width="24" height="24" fill="#1E6EE7"/>
</g>
<path d="M12.0664 4.78687C13.9753 4.78769 15.7671 5.53087 17.1143 6.87964C18.4614 8.22831 19.2029 10.021 19.2021 11.9275C19.2006 15.8609 16.0006 19.0616 12.0664 19.0632H12.0635C10.8693 19.0628 9.69549 18.7635 8.65332 18.1951L4.87109 19.1873L5.88379 15.489C5.25936 14.4069 4.93013 13.1792 4.93066 11.9216C4.93242 7.98757 8.13354 4.78695 12.0664 4.78687ZM12.0684 5.99194C8.79695 5.99194 6.13606 8.65263 6.13477 11.9226C6.13434 13.0432 6.44835 14.1347 7.04199 15.0789L7.18262 15.3035L6.58301 17.4919L8.82812 16.9031L9.04492 17.031C9.9555 17.5714 10.9993 17.8577 12.0635 17.8582H12.0654C15.3342 17.8582 17.9946 15.1976 17.9961 11.9275C17.9967 10.3428 17.3805 8.85225 16.2607 7.7312C15.1411 6.61036 13.6523 5.99257 12.0684 5.99194ZM9.88281 8.63354C9.99222 8.63895 10.1396 8.59181 10.2842 8.93921C10.4328 9.29635 10.7884 10.1742 10.833 10.2634C10.8775 10.3525 10.9077 10.4562 10.8486 10.575C10.7892 10.6939 10.7591 10.7687 10.6699 10.8728C10.5808 10.9769 10.4825 11.1054 10.4023 11.1853C10.3132 11.2741 10.2207 11.3705 10.3242 11.5486C10.4282 11.7271 10.7864 12.3112 11.3164 12.7839C11.9972 13.3911 12.5715 13.5794 12.75 13.6687C12.9282 13.758 13.0327 13.7437 13.1367 13.6248C13.2407 13.5057 13.5823 13.104 13.7012 12.9255C13.8199 12.7473 13.9384 12.7763 14.1016 12.8357C14.265 12.8952 15.1416 13.3263 15.3203 13.4158C15.4986 13.505 15.6176 13.5504 15.6621 13.6248C15.7065 13.6997 15.7059 14.0564 15.5576 14.4724C15.4088 14.8888 14.697 15.2689 14.3545 15.3201C14.0474 15.366 13.6585 15.3855 13.2314 15.2498C12.9725 15.1676 12.6402 15.0575 12.2148 14.8738C10.4265 14.1014 9.25808 12.3004 9.16895 12.1814C9.07871 12.061 8.44159 11.2142 8.44141 10.3376C8.44141 9.46052 8.90181 9.02899 9.06543 8.85034C9.22885 8.67184 9.42216 8.62671 9.54102 8.62671C9.65981 8.62671 9.77898 8.62833 9.88281 8.63354Z" fill="#FDFDFD"/>
</svg>
